<?xml version="1.0" standalone="no"?>
<!DOCTYPE svg PUBLIC "-//W3C//DTD SVG 20010904//EN"
 "http://www.w3.org/TR/2001/REC-SVG-20010904/DTD/svg10.dtd">
<svg version="1.0" xmlns="http://www.w3.org/2000/svg"
 width="435.000000pt" height="435.000000pt" viewBox="0 0 435.000000 435.000000"
 preserveAspectRatio="xMidYMid meet">
<metadata>
Created by potrace 1.14, written by Peter Selinger 2001-2017
</metadata>
<g transform="translate(0.000000,435.000000) scale(0.100000,-0.100000)"
fill="#000000" stroke="none">
<path d="M1896 4333 c-340 -42 -709 -187 -986 -387 -30 -22 -57 -42 -60 -45
-3 -4 -23 -19 -45 -35 -74 -55 -291 -280 -362 -376 -252 -341 -391 -697 -430
-1101 -14 -138 -7 -424 12 -529 3 -14 7 -41 10 -60 3 -19 13 -64 21 -99 145
-630 548 -1151 1124 -1453 191 -100 454 -186 650 -213 25 -3 52 -8 60 -10 31
-8 219 -18 315 -16 116 2 249 13 319 27 12 2 46 8 76 14 329 60 706 241 970
465 72 61 249 243 302 310 266 337 424 730 464 1155 16 169 7 409 -22 570
-153 856 -777 1525 -1624 1739 -59 15 -83 20 -190 36 -25 4 -54 10 -65 12 -48
12 -436 9 -539 -4z"/>
</g>
</svg>
